<svg width="30" height="30" viewBox="0 0 30 30" fill="none" xmlns="http://www.w3.org/2000/svg">
<g clip-path="url(#clip0_1417_57)">
<path d="M28.9964 23.6963C29.1403 24.1285 28.8773 24.8588 28.4095 25.3266L25.4423 28.2938C24.7406 28.996 23.4225 29.2665 22.5009 28.8976L21.1298 28.3496C13.4503 25.2774 4.72124 16.5488 1.64952 8.86881L1.10109 7.49819C0.732648 6.57663 1.00312 5.2585 1.70484 4.55678L4.67202 1.58959C5.13984 1.12131 5.87062 0.858344 6.30234 1.00272C8.67796 1.79444 11.2495 4.36553 12.0412 6.74116C12.1851 7.17287 11.9222 7.90366 11.4544 8.37147L9.7589 10.0669C9.29062 10.5347 9.1514 11.3954 9.44718 11.9869L9.88921 12.8715C11.2209 15.5349 14.4642 18.7782 17.1276 20.1099L18.0117 20.5519C18.6037 20.8477 19.4639 20.708 19.9317 20.2402L21.6276 18.5448C22.0955 18.0769 22.8258 17.814 23.258 17.9579C25.6331 18.7496 28.2047 21.3212 28.9964 23.6963Z" fill="black"/>
<path d="M13.8492 5.44405L13.9589 6.64639C13.9889 6.97592 14.2144 7.20842 14.4628 7.16483C14.4628 7.16483 14.9226 7.13061 15.3858 7.14326C17.3484 7.18967 19.2178 7.99967 20.6039 9.3942C21.9984 10.7803 22.808 12.6497 22.8586 14.6161C22.8759 15.2526 22.8051 15.8822 22.7986 15.907C22.718 16.2281 22.9139 16.5487 23.2364 16.6233L24.4022 16.8923C24.7247 16.9669 25.0509 16.7662 25.1297 16.4451C25.1845 16.2244 25.2764 15.3923 25.2539 14.5528C25.1901 11.9714 24.1261 9.51701 22.2994 7.69873C20.4806 5.87155 18.0267 4.80748 15.4453 4.7442C14.8894 4.7292 14.3376 4.76436 14.3376 4.76436C14.0381 4.80983 13.8197 5.11452 13.8492 5.44405Z" fill="black"/>
<path fill-rule="evenodd" clip-rule="evenodd" d="M13.5028 1.63222L13.6116 2.82565C13.6416 3.15518 13.9083 3.39144 14.2073 3.35253C14.2073 3.35253 14.7544 3.32347 15.3009 3.33659C18.2892 3.41722 21.1251 4.64253 23.2275 6.76175L23.2359 6.77019C23.2317 6.76597 23.2317 6.76597 23.2275 6.76175C23.2317 6.76597 23.2317 6.76597 23.2317 6.76597L23.2359 6.77019C25.3556 8.87253 26.5847 11.7127 26.6611 14.6967C26.6826 15.5892 26.5917 16.4822 26.5266 16.7672C26.453 17.0902 26.655 17.4122 26.9775 17.4867L28.147 17.7567C28.4695 17.8308 28.7906 17.6292 28.8642 17.3067C28.9739 16.8267 29.0845 15.7327 29.0601 14.6377C28.9669 11.0344 27.4875 7.6055 24.9272 5.0705C24.9272 5.0705 24.9272 5.0705 24.923 5.06628L24.9272 5.0705C22.3926 2.51019 18.9633 1.03081 15.3647 0.941748C14.7225 0.926279 14.0822 0.957685 14.0437 0.962373C13.7151 1.00269 13.4728 1.30269 13.5028 1.63222ZM24.923 5.06628C24.9272 5.0705 24.9272 5.0705 24.9272 5.0705L24.923 5.06628Z" fill="black"/>
</g>
<defs>
<clipPath id="clip0_1417_57">
<rect width="30" height="30" fill="white"/>
</clipPath>
</defs>
</svg>
