<svg width="32" height="40" viewBox="0 0 32 40" fill="none" xmlns="http://www.w3.org/2000/svg">
<path d="M16 0.833374C11.9347 0.83794 8.0373 2.45488 5.16273 5.32945C2.28816 8.20401 0.671222 12.1015 0.666656 16.1667C0.666656 22.4055 5.19574 27.5862 9.99316 33.0698C11.5112 34.8063 13.0828 36.6022 14.482 38.4192C14.661 38.6515 14.891 38.8396 15.1542 38.969C15.4174 39.0984 15.7067 39.1657 16 39.1657C16.2933 39.1657 16.5826 39.0984 16.8458 38.969C17.109 38.8396 17.3389 38.6515 17.518 38.4192C18.9172 36.6022 20.4888 34.8063 22.0068 33.0698C26.8042 27.5862 31.3333 22.4055 31.3333 16.1667C31.3288 12.1015 29.7118 8.20401 26.8372 5.32945C23.9627 2.45488 20.0652 0.83794 16 0.833374ZM16 21.9167C14.8627 21.9167 13.751 21.5795 12.8055 20.9477C11.8599 20.3158 11.1229 19.4178 10.6877 18.3671C10.2525 17.3165 10.1386 16.1603 10.3605 15.0449C10.5823 13.9295 11.13 12.905 11.9341 12.1008C12.7383 11.2967 13.7628 10.7491 14.8782 10.5272C15.9936 10.3053 17.1497 10.4192 18.2004 10.8544C19.2511 11.2896 20.1491 12.0266 20.7809 12.9722C21.4128 13.9178 21.75 15.0295 21.75 16.1667C21.75 17.6917 21.1442 19.1542 20.0659 20.2326C18.9875 21.3109 17.525 21.9167 16 21.9167Z" fill="black"/>
</svg>
