<svg width="5" height="8" viewBox="0 0 5 8" fill="none" xmlns="http://www.w3.org/2000/svg">
<path d="M4.30856 3.59429L1.07428 0.365713C1.02115 0.312154 0.957953 0.269643 0.888319 0.240633C0.818686 0.211622 0.743997 0.196686 0.668561 0.196686C0.593126 0.196686 0.518437 0.211622 0.448803 0.240633C0.379169 0.269643 0.315969 0.312154 0.262847 0.365713C0.156418 0.472778 0.0966797 0.617607 0.0966797 0.768571C0.0966797 0.919534 0.156418 1.06436 0.262847 1.17143L3.09142 4.02857L0.262847 6.85714C0.156418 6.96421 0.0966797 7.10904 0.0966797 7.26C0.0966797 7.41096 0.156418 7.55579 0.262847 7.66286C0.31577 7.71685 0.378881 7.7598 0.448524 7.78923C0.518167 7.81866 0.592957 7.83397 0.668561 7.83429C0.744165 7.83397 0.818955 7.81866 0.888598 7.78923C0.958241 7.7598 1.02135 7.71685 1.07428 7.66286L4.30856 4.43429C4.36656 4.38078 4.41286 4.31583 4.44452 4.24355C4.47618 4.17126 4.49252 4.0932 4.49252 4.01429C4.49252 3.93537 4.47618 3.85731 4.44452 3.78502C4.41286 3.71274 4.36656 3.6478 4.30856 3.59429Z" fill="black"/>
</svg>
